<?xml version="1.0" encoding="UTF-8" standalone="no"?>
<!-- Created with Inkscape (http://www.inkscape.org/) -->

<svg
   width="512"
   height="512"
   viewBox="0 0 512 512"
   version="1.1"
   id="svg1"
   xmlns:xlink="http://www.w3.org/1999/xlink"
   xmlns="http://www.w3.org/2000/svg"
   xmlns:svg="http://www.w3.org/2000/svg">
  <defs
     id="defs1">
    <clipPath
       clipPathUnits="userSpaceOnUse"
       id="clipPath76">
      <rect
         style="font-variation-settings:normal;opacity:0.636364;vector-effect:none;fill:#000000;fill-opacity:1;fill-rule:evenodd;stroke-width:0.671076;stroke-linecap:butt;stroke-linejoin:miter;stroke-miterlimit:4;stroke-dasharray:none;stroke-dashoffset:0;stroke-opacity:1;-inkscape-stroke:none;stop-color:#000000;stop-opacity:1"
         id="rect76"
         width="343.5918"
         height="343.5918"
         x="28.330463"
         y="109.22379" />
    </clipPath>
    <clipPath
       clipPathUnits="userSpaceOnUse"
       id="clipPath80">
      <rect
         style="font-variation-settings:normal;opacity:0.636364;vector-effect:none;fill:#000000;fill-opacity:1;fill-rule:evenodd;stroke-width:0.671076;stroke-linecap:butt;stroke-linejoin:miter;stroke-miterlimit:4;stroke-dasharray:none;stroke-dashoffset:0;stroke-opacity:1;-inkscape-stroke:none;stop-color:#000000;stop-opacity:1"
         id="rect80"
         width="343.5918"
         height="343.5918"
         x="28.330463"
         y="109.22379" />
    </clipPath>
    <clipPath
       clipPathUnits="userSpaceOnUse"
       id="clipPath81">
      <rect
         style="font-variation-settings:normal;opacity:0.636364;vector-effect:none;fill:#000000;fill-opacity:1;fill-rule:evenodd;stroke-width:0.671076;stroke-linecap:butt;stroke-linejoin:miter;stroke-miterlimit:4;stroke-dasharray:none;stroke-dashoffset:0;stroke-opacity:1;-inkscape-stroke:none;stop-color:#000000;stop-opacity:1"
         id="rect81"
         width="343.5918"
         height="343.5918"
         x="28.330463"
         y="109.22379" />
    </clipPath>
    <clipPath
       clipPathUnits="userSpaceOnUse"
       id="clipPath82">
      <rect
         style="font-variation-settings:normal;opacity:0.636364;vector-effect:none;fill:#000000;fill-opacity:1;fill-rule:evenodd;stroke-width:0.671076;stroke-linecap:butt;stroke-linejoin:miter;stroke-miterlimit:4;stroke-dasharray:none;stroke-dashoffset:0;stroke-opacity:1;-inkscape-stroke:none;stop-color:#000000;stop-opacity:1"
         id="rect82"
         width="343.5918"
         height="343.5918"
         x="28.330463"
         y="109.22379" />
    </clipPath>
    <clipPath
       clipPathUnits="userSpaceOnUse"
       id="clipPath78">
      <rect
         style="font-variation-settings:normal;opacity:0.636364;vector-effect:none;fill:#000000;fill-opacity:1;fill-rule:evenodd;stroke-width:0.671076;stroke-linecap:butt;stroke-linejoin:miter;stroke-miterlimit:4;stroke-dasharray:none;stroke-dashoffset:0;stroke-opacity:1;-inkscape-stroke:none;stop-color:#000000;stop-opacity:1"
         id="rect78"
         width="343.5918"
         height="343.5918"
         x="28.480463"
         y="109.07379" />
    </clipPath>
    <clipPath
       clipPathUnits="userSpaceOnUse"
       id="clipPath79">
      <rect
         style="font-variation-settings:normal;opacity:0.636364;vector-effect:none;fill:#000000;fill-opacity:1;fill-rule:evenodd;stroke-width:0.671076;stroke-linecap:butt;stroke-linejoin:miter;stroke-miterlimit:4;stroke-dasharray:none;stroke-dashoffset:0;stroke-opacity:1;-inkscape-stroke:none;stop-color:#000000;stop-opacity:1"
         id="rect79"
         width="343.5918"
         height="343.5918"
         x="28.480463"
         y="109.07379" />
    </clipPath>
    <clipPath
       clipPathUnits="userSpaceOnUse"
       id="clipPath77">
      <rect
         style="font-variation-settings:normal;opacity:0.636364;vector-effect:none;fill:#000000;fill-opacity:1;fill-rule:evenodd;stroke-width:0.671076;stroke-linecap:butt;stroke-linejoin:miter;stroke-miterlimit:4;stroke-dasharray:none;stroke-dashoffset:0;stroke-opacity:1;-inkscape-stroke:none;stop-color:#000000;stop-opacity:1"
         id="rect77"
         width="343.5918"
         height="343.5918"
         x="28.480463"
         y="109.07379" />
    </clipPath>
    <linearGradient
       xlink:href="#linearGradient53"
       id="linearGradient55"
       x1="293.27399"
       y1="244.72603"
       x2="50.317879"
       y2="487.68213"
       gradientUnits="userSpaceOnUse" />
    <linearGradient
       id="linearGradient53">
      <stop
         style="stop-color:#000000;stop-opacity:1;"
         offset="0"
         id="stop54" />
      <stop
         style="stop-color:#222356;stop-opacity:1;"
         offset="1"
         id="stop55" />
    </linearGradient>
    <radialGradient
       xlink:href="#linearGradient2-3"
       id="radialGradient9"
       gradientUnits="userSpaceOnUse"
       gradientTransform="matrix(1.0000004,1.0000001,-1.9999995,2.0000002,1003.8031,-871.80707)"
       cx="203.00179"
       cy="603.40259"
       fx="203.00179"
       fy="603.40259"
       r="171.7959" />
    <linearGradient
       id="linearGradient2-3">
      <stop
         style="stop-color:#ffffff;stop-opacity:1;"
         offset="0.09835441"
         id="stop39" />
      <stop
         style="stop-color:#f4f2d3;stop-opacity:1;"
         offset="0.13805032"
         id="stop40" />
      <stop
         style="stop-color:#f4c457;stop-opacity:1;"
         offset="0.18000001"
         id="stop41" />
      <stop
         style="stop-color:#d12e41;stop-opacity:1;"
         offset="0.25"
         id="stop42" />
      <stop
         style="stop-color:#693399;stop-opacity:1;"
         offset="0.32053208"
         id="stop43" />
      <stop
         style="stop-color:#569cdc;stop-opacity:1;"
         offset="0.58252531"
         id="stop44" />
      <stop
         style="stop-color:#2b2b6e;stop-opacity:1;"
         offset="0.79126263"
         id="stop45" />
      <stop
         style="stop-color:#151537;stop-opacity:1;"
         offset="1"
         id="stop46" />
    </linearGradient>
    <radialGradient
       xlink:href="#linearGradient2-5"
       id="radialGradient39"
       gradientUnits="userSpaceOnUse"
       gradientTransform="matrix(0.99999993,0.99999984,-2.0000555,2.0000557,1076.0299,-538.03)"
       cx="2.6152289e-05"
       cy="538"
       fx="2.6152289e-05"
       fy="538"
       r="171.78613" />
    <linearGradient
       id="linearGradient2-5">
      <stop
         style="stop-color:#2b2b6e;stop-opacity:1;"
         offset="0"
         id="stop29" />
      <stop
         style="stop-color:#2b2b6e;stop-opacity:1;"
         offset="0.32053208"
         id="stop47" />
      <stop
         style="stop-color:#569cdc;stop-opacity:1;"
         offset="0.58252531"
         id="stop30" />
      <stop
         style="stop-color:#2b2b6e;stop-opacity:1;"
         offset="0.79126263"
         id="stop36" />
      <stop
         style="stop-color:#151537;stop-opacity:1;"
         offset="1"
         id="stop38" />
    </linearGradient>
    <clipPath
       clipPathUnits="userSpaceOnUse"
       id="clipPath2">
      <rect
         style="font-variation-settings:normal;display:inline;opacity:0.636364;vector-effect:none;fill:#000000;fill-opacity:1;fill-rule:evenodd;stroke-width:0.671116;stroke-linecap:butt;stroke-linejoin:miter;stroke-miterlimit:4;stroke-dasharray:none;stroke-dashoffset:0;stroke-opacity:1;-inkscape-stroke:none;stop-color:#000000;stop-opacity:1"
         id="rect3"
         width="335.55814"
         height="335.55814"
         x="32.347389"
         y="113.24053" />
    </clipPath>
  </defs>
  <g
     id="layer1">
    <g
       id="g24"
       style="display:inline"
       transform="matrix(1.4900548,0,0,1.4900548,0.01450877,-289.66399)">
      <g
         id="g16"
         transform="translate(-28.330434,85.18438)"
         style="display:inline"
         clip-path="url(#clipPath2)">
        <path
           fill="none"
           stroke="#6e6d73"
           paint-order="fill stroke markers"
           d="m 28.330434,452.81562 0.699254,-0.30176 m 0,0 3.242187,-1.35103 m 0,0 3.242187,-1.2782 3.242188,-1.21281 m 0,0 3.242187,-1.15379 3.242188,-1.10025 3.242187,-1.05146 3.242188,-1.00681 m 0,0 3.242187,-0.9658 3.242188,-0.928 3.242188,-0.89306 3.242187,-0.86063 3.242188,-0.8305 3.242187,-0.80239 3.242188,-0.77612 3.242187,-0.75153 3.242188,-0.72845 3.242187,-0.70673 3.242188,-0.68628 3.242187,-0.66697 3.242188,-0.64873 3.242187,-0.63145 3.242185,-0.61508 3.24219,-0.59952 m 0,0 3.24219,-0.58474 3.24219,-0.57067 3.24218,-0.55726 3.24219,-0.54446 3.24219,-0.53224 3.24219,-0.52056 3.24218,-0.50938 3.24219,-0.49866 3.24219,-0.4884 3.24219,-0.47854 3.24218,-0.46907 3.24219,-0.45998 3.24219,-0.45122 3.24219,-0.4428 3.24218,-0.43468 3.24219,-0.42685 3.24219,-0.41931 3.24218,-0.41202 3.24219,-0.40499 3.24219,-0.39819 3.24219,-0.39161 3.24218,-0.38525 3.24219,-0.37909 3.24219,-0.37312 3.24219,-0.36735 3.24219,-0.36174 3.24218,-0.3563 3.24219,-0.35104 3.24219,-0.34591 3.24218,-0.34094 3.24219,-0.3361 3.24219,-0.33141 m 0,0 3.24219,-0.32684 3.24219,-0.3224 3.24218,-0.31807 3.24219,-0.31387 3.24219,-0.30976 3.24218,-0.30577 3.24219,-0.30188 3.24219,-0.29808 3.24219,-0.29438 3.24219,-0.29078 3.24218,-0.28725 3.24219,-0.28381 3.24219,-0.28046 3.24218,-0.27718 3.24219,-0.27397 3.24219,-0.27085 3.24219,-0.26779 3.24219,-0.2648 3.24218,-0.26187 3.24219,-0.25901 3.24219,-0.25622 3.24218,-0.25348 3.24219,-0.25079 3.24219,-0.24817 3.24219,-0.2456 3.24219,-0.24309 3.24218,-0.24061 3.24219,-0.2382 3.24219,-0.23584 3.24218,-0.23351 3.24219,-0.23123 3.24219,-0.229 m 0,0 3.24219,-0.22681 3.24219,-0.22466 3.24218,-0.22255 3.24219,-0.22048 3.24219,-0.21845 3.24218,-0.21646 3.24219,-0.2145 3.24219,-0.21258 3.24219,-0.21069 3.24219,-0.20883 3.24218,-0.20701 3.24219,-0.20522 3.24219,-0.20346 3.24218,-0.20172 3.24219,-0.20003 3.24219,-0.19835 m 0,0 3.24219,-0.19671 3.24219,-0.19509 3.24218,-0.1935 3.24219,-0.19193 3.24219,-0.19039 3.24218,-0.18887 3.24219,-0.18738 3.24219,-0.18592 m 0,0 3.24219,-0.18446 3.24219,-0.18305 3.24218,-0.18164 3.24219,-0.18026 m 0,0 3.24219,-0.1789 3.24218,-0.17756 m 0,0 2.19627,-0.11953"
           stroke-opacity="0.8"
           stroke-linecap="round"
           stroke-linejoin="round"
           stroke-miterlimit="10"
           stroke-width="2.5"
           id="path12"
           style="display:inline;stroke:#ffffff;stroke-width:15;stroke-dasharray:none;stroke-opacity:1"
           clip-path="url(#clipPath80)" />
        <path
           fill="none"
           stroke="#d32f2f"
           paint-order="fill stroke markers"
           d="M 28.330434,452.81562 29.029688,452.51 m 0,0 3.242187,-1.46647 m 0,0 3.242187,-1.54449 3.242188,-1.61841 m 0,0 3.242187,-1.68864 3.242188,-1.75552 3.242187,-1.81939 3.242188,-1.88048 m 0,0 3.242187,-1.93902 3.242188,-1.99522 3.242188,-2.04928 3.242187,-2.10133 3.242188,-2.15153 3.242187,-2.19999 3.242188,-2.24684 3.242187,-2.2922 3.242188,-2.33612 3.242187,-2.37872 3.242188,-2.42007 3.242187,-2.46024 3.242188,-2.4993 3.242187,-2.5373 3.242185,-2.5743 3.24219,-2.61036 m 0,0 3.24219,-2.64551 3.24219,-2.67981 3.24218,-2.71329 3.24219,-2.746 3.24219,-2.77796 3.24219,-2.80921 3.24218,-2.83979 3.24219,-2.86971 3.24219,-2.89901 3.24219,-2.92772 3.24218,-2.95584 3.24219,-2.98343 3.24219,-3.01048 3.24219,-3.03701 3.24218,-3.06307 3.24219,-3.08864 3.24219,-3.11376 3.24218,-3.13844 3.24219,-3.1627 3.24219,-3.18654 3.24219,-3.20998 3.24218,-3.23305 3.24219,-3.25574 3.24219,-3.27807 3.24219,-3.30005 3.24219,-3.32169 3.24218,-3.34301 3.24219,-3.36401 3.24219,-3.3847 3.24218,-3.40509 3.24219,-3.42519 3.24219,-3.44501 m 0,0 3.24219,-3.46454 3.24219,-3.48383 3.24218,-3.50283 3.24219,-3.5216 3.24219,-3.54011 3.24218,-3.55838 3.24219,-3.57642 3.24219,-3.59423 3.24219,-3.61183 3.24219,-3.62919 3.24218,-3.64635 3.24219,-3.66331 3.24219,-3.68006 3.24218,-3.69661 3.24219,-3.71297 3.24219,-3.72915 3.24219,-3.74514 3.24219,-3.76095 3.24218,-3.77659 3.24219,-3.79205 3.24219,-3.80735 3.24218,-3.82247 3.24219,-3.83745 3.24219,-3.85226 3.24219,-3.86692 3.24219,-3.88143 3.24218,-3.89579 3.24219,-3.91 3.24219,-3.92407 3.24218,-3.93801 3.24219,-3.95181 3.24219,-3.96547 m 0,0 3.24219,-3.979 3.24219,-3.9924 3.24218,-4.00568 3.24219,-4.01883 3.24219,-4.03187 3.24218,-4.04477 3.24219,-4.05757 3.24219,-4.07025 3.24219,-4.08281 3.24219,-4.09527 3.24218,-4.10761 3.24219,-4.11985 3.24219,-4.13199 3.24218,-4.14401 3.24219,-4.15594 3.24219,-4.16777 m 0,0 3.24219,-4.17949 3.24219,-4.19113 3.24218,-4.20266 3.24219,-4.21411 3.24219,-4.225454 3.24218,-4.236715 3.24219,-4.247886 3.24219,-4.258967 m 0,0 3.24219,-4.269963 3.24219,-4.280874 3.24218,-4.2917 3.24219,-4.302444 m 0,0 3.24219,-4.313107 3.24218,-4.323689 m 0,0 2.19627,-2.934845"
           stroke-opacity="0.8"
           stroke-linecap="round"
           stroke-linejoin="round"
           stroke-miterlimit="10"
           stroke-width="2.5"
           id="path10"
           style="display:inline;stroke:#ffffff;stroke-width:15;stroke-dasharray:none;stroke-opacity:1"
           clip-path="url(#clipPath81)" />
        <path
           fill="none"
           stroke="#1565c0"
           paint-order="fill stroke markers"
           d="m 28.330434,452.81562 0.699254,-0.69926 m 0,0 3.242187,-3.24219 m 0,0 3.242187,-3.24218 3.242188,-3.24219 m 0,0 3.242187,-3.24219 3.242188,-3.24219 3.242187,-3.24218 3.242188,-3.24219 m 0,0 3.242187,-3.24219 3.242188,-3.24219 3.242188,-3.24218 3.242187,-3.24219 3.242188,-3.24219 3.242187,-3.24219 3.242188,-3.24218 3.242187,-3.24219 3.242188,-3.24219 3.242187,-3.24219 3.242188,-3.24218 3.242187,-3.24219 3.242188,-3.24219 3.242187,-3.24219 3.242185,-3.24218 3.24219,-3.24219 m 0,0 3.24219,-3.24219 3.24219,-3.24219 3.24218,-3.24218 3.24219,-3.24219 3.24219,-3.24219 3.24219,-3.24219 3.24218,-3.24218 3.24219,-3.24219 3.24219,-3.24219 3.24219,-3.24219 3.24218,-3.24218 3.24219,-3.24219 3.24219,-3.24219 3.24219,-3.24219 3.24218,-3.24218 3.24219,-3.24219 3.24219,-3.24219 3.24218,-3.24219 3.24219,-3.24218 3.24219,-3.24219 3.24219,-3.24219 3.24218,-3.24219 3.24219,-3.24218 3.24219,-3.24219 3.24219,-3.24219 3.24219,-3.24219 3.24218,-3.24218 3.24219,-3.24219 3.24219,-3.24219 3.24218,-3.24219 3.24219,-3.24218 3.24219,-3.24219 m 0,0 3.24219,-3.24219 3.24219,-3.24219 3.24218,-3.24218 3.24219,-3.24219 3.24219,-3.24219 3.24218,-3.24219 3.24219,-3.24218 3.24219,-3.24219 3.24219,-3.24219 3.24219,-3.24219 3.24218,-3.24218 3.24219,-3.24219 3.24219,-3.24219 3.24218,-3.24219 3.24219,-3.24218 3.24219,-3.24219 3.24219,-3.24219 3.24219,-3.24219 3.24218,-3.24218 3.24219,-3.24219 3.24219,-3.24219 3.24218,-3.24219 3.24219,-3.24218 3.24219,-3.24219 3.24219,-3.24219 3.24219,-3.24219 3.24218,-3.24218 3.24219,-3.24219 3.24219,-3.24219 3.24218,-3.24219 3.24219,-3.24218 3.24219,-3.24219 m 0,0 3.24219,-3.24219 3.24219,-3.24219 3.24218,-3.24218 3.24219,-3.24219 3.24219,-3.24219 3.24218,-3.24219 3.24219,-3.24218 3.24219,-3.24219 3.24219,-3.24219 3.24219,-3.24219 3.24218,-3.24218 3.24219,-3.24219 3.24219,-3.24219 3.24218,-3.24219 3.24219,-3.24218 3.24219,-3.24219 m 0,0 3.24219,-3.24219 3.24219,-3.24219 3.24218,-3.24218 3.24219,-3.24219 3.24219,-3.24219 3.24218,-3.242186 3.24219,-3.242187 3.24219,-3.242188 m 0,0 3.24219,-3.242187 3.24219,-3.242188 3.24218,-3.242187 3.24219,-3.242188 m 0,0 3.24219,-3.242187 3.24218,-3.242188 m 0,0 2.19627,-2.196262"
           stroke-opacity="0.8"
           stroke-linecap="round"
           stroke-linejoin="round"
           stroke-miterlimit="10"
           stroke-width="2.5"
           id="path1"
           style="display:inline;stroke:#ffffff;stroke-width:15;stroke-dasharray:none;stroke-opacity:1"
           clip-path="url(#clipPath82)" />
        <path
           fill="none"
           stroke="#006758"
           paint-order="fill stroke markers"
           d="m 28.480434,452.66562 0.699254,-0.97369 m 0,0 3.242187,-4.62931 m 0,0 3.242187,-4.82381 3.242188,-5.02648 m 0,0 3.242187,-5.23766 3.242188,-5.45773 3.242187,-5.68703 3.242188,-5.92597 m 0,0 3.242187,-6.17495 3.242188,-6.43439 3.242188,-6.70473 3.242187,-6.98643 3.242188,-7.27996 3.242187,-7.58583 3.242188,-7.90455 3.242187,-8.23665 3.242188,-8.58272 3.242187,-8.94331 3.242188,-9.31907 3.242187,-9.71061 1.621094,-5.00725 1.621094,-5.11135 1.621093,-5.21763 1.621094,-5.3261 1.621094,-5.43684 1.621091,-5.54988 1.6211,-5.66527 1.62109,-5.78306 m 0,0 1.62109,-5.9033 1.6211,-6.02603 1.62109,-6.15132 1.6211,-6.27922 1.62109,-6.40977 1.62109,-6.54303 1.6211,-6.67908 1.62109,-6.81794 1.62109,-6.95969 1.6211,-7.1044 1.62109,-7.2521 1.6211,-7.40289 1.62109,-7.5568 1.62109,-7.71392 1.6211,-7.8743 1.62109,-8.03801 1.62109,-8.20514 1.6211,-8.37573 1.62109,-8.54987 1.6211,-8.72764 1.62109,-8.9091 1.62109,-9.09432 1.6211,-9.28341 1.62109,-9.476426 1.62109,-9.673451 1.6211,-9.874575 0.81054,-5.014012 0.81055,-5.065867 0.81055,-5.11826 0.81055,-5.171193 0.81054,-5.224675 0.81055,-5.27871 0.81055,-5.333302 0.81054,-5.388461 0.81055,-5.444188 0.81055,-5.500494 0.81054,-5.55738 0.81055,-5.614856 0.81055,-5.6729257 0.81054,-5.7315959 0.81055,-5.790873 0.81055,-5.8507631 M 158.89751,-10"
           stroke-opacity="0.8"
           stroke-linecap="round"
           stroke-linejoin="round"
           stroke-miterlimit="10"
           stroke-width="2.5"
           id="path15"
           style="display:inline;stroke:#ffffff;stroke-width:15;stroke-dasharray:none;stroke-opacity:1"
           clip-path="url(#clipPath78)"
           transform="translate(-0.15,0.15)" />
        <path
           fill="none"
           stroke="#c75000"
           paint-order="fill stroke markers"
           d="m 28.480434,452.66562 0.699254,-1.40747 m 0,0 3.242187,-6.75992 m 0,0 3.242187,-7.14493 3.242188,-7.52995 m 0,0 3.242187,-7.91497 3.242188,-8.29998 3.242187,-8.68499 3.242188,-9.07002 m 0,0 3.242187,-9.45502 3.242188,-9.84004 1.621094,-5.06441 1.621094,-5.16065 1.621093,-5.25691 1.621094,-5.35316 1.621094,-5.44942 1.621094,-5.54567 1.621093,-5.64192 1.621094,-5.73818 1.621094,-5.83443 1.621094,-5.93069 1.621093,-6.02694 1.621094,-6.12319 1.621094,-6.21945 1.621094,-6.3157 1.621093,-6.41196 1.621094,-6.5082 1.621094,-6.60447 1.621094,-6.70071 1.621093,-6.79697 1.621094,-6.89323 1.621094,-6.98947 1.621094,-7.08574 1.621093,-7.18198 1.621094,-7.27824 1.621094,-7.37449 1.621091,-7.47075 1.6211,-7.567 1.62109,-7.66325 m 0,0 1.62109,-7.75951 1.6211,-7.85576 1.62109,-7.95202 1.6211,-8.04827 1.62109,-8.14452 1.62109,-8.24078 1.6211,-8.33703 1.62109,-8.43328 1.62109,-8.52954 1.6211,-8.62579 1.62109,-8.72205 1.6211,-8.818298 1.62109,-8.914554 1.62109,-9.010807 1.6211,-9.107061 1.62109,-9.203315 1.62109,-9.299569 1.6211,-9.395822 1.62109,-9.492077 1.6211,-9.58833 1.62109,-9.684583 1.62109,-9.7808381 1.6211,-9.8770915 1.62109,-9.9733454 M 408.51562,-2952.3656"
           stroke-opacity="0.8"
           stroke-linecap="round"
           stroke-linejoin="round"
           stroke-miterlimit="10"
           stroke-width="2.5"
           id="path14"
           style="display:inline;stroke:#ffffff;stroke-width:15;stroke-dasharray:none;stroke-opacity:1"
           clip-path="url(#clipPath79)"
           transform="translate(-0.15,0.15)" />
        <path
           fill="none"
           stroke="#1565c0"
           paint-order="fill stroke markers"
           d="m 28.480434,452.66562 0.699254,-1.30175 m 0,0 3.242187,-6.33923 m 0,0 3.242187,-6.87031 3.242188,-7.44785 m 0,0 3.242187,-8.07654 3.242188,-8.76145 3.242187,-9.50826 1.621094,-5.05522 1.621094,-5.268 m 0,0 1.621094,-5.49038 1.621093,-5.72284 1.621094,-5.96586 1.621094,-6.22001 1.621094,-6.4858 1.621094,-6.76383 1.621093,-7.05473 1.621094,-7.35911 1.621094,-7.67769 1.621094,-8.01116 1.621093,-8.36028 1.621094,-8.72584 1.621094,-9.10868 1.621094,-9.50969 1.621093,-9.92978 0.810547,-5.12865 0.810547,-5.24128 0.810547,-5.35658 0.810547,-5.47461 0.810547,-5.59545 0.810547,-5.71917 0.810546,-5.84585 0.810547,-5.97554 0.810547,-6.10834 0.810547,-6.24433 0.810547,-6.38359 0.810547,-6.52618 0.810547,-6.67223 0.810547,-6.82178 0.810546,-6.97496 0.810547,-7.13185 0.810547,-7.29253 0.810547,-7.45711 0.810547,-7.62571 0.810547,-7.79841 0.810547,-7.97532 0.810547,-8.15654 0.810546,-8.34221 0.810547,-8.53243 0.810547,-8.72731 0.810547,-8.92699 0.810547,-9.13157 0.810547,-9.341205 0.810547,-9.556013 0.810544,-9.776132 0.40528,-4.972308 0.40527,-5.029393 0.40527,-5.087181 0.40528,-5.145683 0.40527,-5.204907 0.40527,-5.264862 0.40528,-5.325559 0.40527,-5.387006 m 0,0 0.40527,-5.449215 0.40528,-5.512194 0.40527,-5.5759543 0.40527,-5.6405056 0.40528,-5.7058583 0.40527,-5.7720233 M 106.1891,-10"
           stroke-opacity="0.8"
           stroke-linecap="round"
           stroke-linejoin="round"
           stroke-miterlimit="10"
           stroke-width="2.5"
           id="path16"
           style="display:inline;stroke:#ffffff;stroke-width:15;stroke-dasharray:none;stroke-opacity:1"
           clip-path="url(#clipPath77)"
           transform="translate(-0.15,0.15)" />
        <g
           id="g13"
           style="display:inline"
           transform="translate(28.330434,-85.18438)">
          <path
             d="m 341.56836,493.03125 v 42.94531 H 10.529297 l 0.574219,-0.21484 0.03125,-0.0117 3.183593,-1.13086 0.02734,-0.01 3.214844,-1.09179 3.193359,-1.03516 0.02148,-0.008 3.195312,-0.99219 0.0059,-0.002 0.01953,-0.006 3.197265,-0.95117 0.01953,-0.006 3.203125,-0.91602 0.01953,-0.006 3.205078,-0.88281 0.01758,-0.004 3.207031,-0.85156 3.226563,-0.82617 0.01172,-0.002 0.0039,-0.002 3.210937,-0.79492 0.01563,-0.004 3.226563,-0.77149 -0.01367,0.002 3.228516,-0.74804 0.01367,-0.004 3.216797,-0.72266 0.01172,-0.002 3.216797,-0.70117 0.01367,-0.004 3.21875,-0.67968 0.0098,-0.002 3.220704,-0.66406 0.01172,-0.002 3.220703,-0.64453 0.0098,-0.002 3.222656,-0.62695 3.232422,-0.61328 3.234375,-0.59961 3.232422,-0.58399 3.234375,-0.56835 3.236328,-0.55469 3.234375,-0.54492 3.236328,-0.5293 3.234375,-0.52149 3.234375,-0.50781 3.236326,-0.49804 3.23633,-0.48633 3.23633,-0.47852 3.23828,-0.4668 3.23633,-0.46093 3.23633,-0.45117 3.23632,-0.44141 3.23829,-0.43359 3.23632,-0.42774 3.24024,-0.41601 3.23828,-0.41211 3.23633,-0.40625 3.23828,-0.39649 3.23828,-0.39062 3.23828,-0.38477 3.23828,-0.37891 3.24024,-0.37304 3.23828,-0.36524 3.23828,-0.36328 3.24023,-0.35547 3.23828,-0.35156 3.24024,-0.3457 3.23828,-0.3418 3.23828,-0.33398 3.24024,-0.33008 3.23828,-0.32813 3.24023,-0.32226 3.23828,-0.31836 3.24219,-0.3125 3.23828,-0.31055 3.24024,-0.30469 3.24023,-0.30078 3.23828,-0.29883 3.24219,-0.29296 3.23828,-0.29102 3.24219,-0.28711 3.23828,-0.28516 3.24023,-0.27929 3.24024,-0.27735 3.24023,-0.27343 3.24024,-0.27149 3.24218,-0.26758 3.23829,-0.26367 3.24023,-0.26172 3.24219,-0.25781 3.23828,-0.25781 3.24219,-0.25195 3.24023,-0.25196 3.24023,-0.24804 3.24024,-0.2461 3.24219,-0.24219 3.24023,-0.24023 3.24024,-0.23828 3.24023,-0.23633 3.24219,-0.23242 3.24023,-0.23242 3.24024,-0.22852 3.24218,-0.22656 3.24024,-0.22266 3.24023,-0.22265 3.24219,-0.22071 3.24023,-0.21875 3.24024,-0.21679 3.24023,-0.21485 3.24219,-0.21094 3.24219,-0.21093 3.24023,-0.20899 3.24024,-0.20703 3.24218,-0.20508 3.24219,-0.20312 3.24024,-0.20313 3.24218,-0.19922 3.23828,-0.19921 3.24219,-0.19532 3.24219,-0.19531 z"
             style="display:inline;fill:#000000;fill-opacity:1;fill-rule:evenodd;stroke:none;stroke-width:5;stroke-dasharray:none;stroke-opacity:1;stop-color:#000000"
             id="path13" />
          <path
             d="M 94.533203,196.43164 H 109.625 l -0.68359,3.91797 -1.61914,9.08789 -1.6211,8.90039 -1.61914,8.7207 -1.61914,8.54102 -1.61914,8.36914 -1.621094,8.19727 -1.61914,8.02929 -1.619141,7.86719 -1.619141,7.70508 -1.61914,7.54687 -1.619141,7.39649 -1.619141,7.24414 -1.61914,7.09375 -1.619141,6.95117 -1.61914,6.80859 -1.619141,6.66993 -1.617188,6.5332 -1.621093,6.41015 -1.619141,6.26954 -1.619141,6.14062 0.0039,-0.01 -1.621094,6.02734 -1.619141,5.89258 0.002,-0.0117 -1.621093,5.7832 -1.617188,5.65625 -1.617187,5.53711 -1.619141,5.42774 -1.617187,5.31445 -1.617188,5.20703 -1.617187,5.09961 0.002,-0.0117 -1.621094,5.00781 -3.236328,9.69336 0.0098,-0.0234 -3.234375,9.29297 -3.242187,8.94336 -3.232422,8.5586 -3.232422,8.21093 -3.230469,7.87696 0.0098,-0.0274 -3.242187,7.58594 0.01367,-0.0273 -3.230468,7.25 -3.242188,6.98633 -3.228515,6.67578 -3.226563,6.40429 -3.226562,6.14453 -3.226563,5.89649 -3.224609,5.65625 -1.421875,2.39062 1.826172,-4.54687 3.259765,-8.8125 1.033203,-3.0293 2.203125,-5.89844 3.251953,-9.09765 3.25,-9.47852 3.248047,-9.85937 1.625,-5.07813 1.625,-5.16992 1.625,-5.26758 1.625,-5.36914 1.623047,-5.45703 1.625,-5.55469 1.623047,-5.65039 1.623047,-5.74804 1.623047,-5.8418 1.623047,-5.9375 1.623047,-6.03516 1.623046,-6.13086 1.623047,-6.22656 1.623047,-6.32226 1.623047,-6.41993 1.623047,-6.51367 1.623047,-6.61133 1.623047,-6.70898 1.621093,-6.80274 1.623047,-6.89843 1.623047,-6.9961 1.623047,-7.08984 1.621094,-7.18945 1.623047,-7.28321 1.621093,-7.3789 1.623047,-7.47657 1.623047,-7.57226 1.621094,-7.66797 1.623047,-7.76562 1.621094,-7.85938 1.623046,-7.95508 1.621094,-8.05469 1.621094,-8.14843 1.623047,-8.24414 1.621094,-8.3418 1.623046,-8.43945 1.621094,-8.53321 1.623047,-8.6289 z"
             style="display:inline;fill:#000000;fill-opacity:1;fill-rule:evenodd;stroke:none;stroke-width:5;stroke-dasharray:none;stroke-opacity:1;stop-color:#000000"
             id="path9" />
          <path
             d="m 70.138672,196.43164 h 20.277344 l -0.923829,4.97461 -1.621093,8.62109 -1.619141,8.52344 -1.621094,8.42969 -1.61914,8.33398 -1.621094,8.23633 -1.621094,8.13867 -1.61914,8.04492 -1.621094,7.94727 -1.619141,7.84961 -1.621094,7.75586 -1.61914,7.6582 -1.619141,7.56055 -1.621094,7.4668 -1.61914,7.36914 -1.621094,7.27148 -1.619141,7.17774 -1.61914,7.07812 -1.619141,6.98438 -1.621094,6.88671 -1.61914,6.78907 -1.619141,6.69531 -1.61914,6.59961 -1.619141,6.5 -1.619141,6.4043 -1.61914,6.30859 -1.619141,6.21289 -1.619141,6.11523 -1.61914,6.01954 -1.619141,5.92187 -1.61914,5.82422 -1.263672,4.4707 0.330078,-1.56054 1.623047,-8.0293 1.625,-8.375 1.623047,-8.74219 1.625,-9.12109 1.623046,-9.52344 1.623047,-9.94336 0.8125,-5.14062 0.810547,-5.24805 0.8125,-5.36133 0.810547,-5.48047 0.8125,-5.60351 0.810547,-5.72461 0.8125,-5.85157 0.810547,-5.98242 0.810547,-6.11328 0.8125,-6.25 0.810547,-6.38867 0.810546,-6.53125 0.8125,-6.67774 0.810547,-6.82617 0.810547,-6.98047 0.8125,-7.13867 0.810547,-7.29687 0.810547,-7.46094 0.810547,-7.63086 0.8125,-7.80273 0.810547,-7.98047 0.810547,-8.16016 0.810546,-8.34766 0.8125,-8.53515 0.810547,-8.73242 z"
             style="display:inline;fill:#000000;fill-opacity:1;fill-rule:evenodd;stroke:none;stroke-width:5;stroke-dasharray:none;stroke-opacity:1;stop-color:#000000"
             id="path8" />
        </g>
      </g>
      <path
         id="rect75"
         style="display:inline;opacity:1;mix-blend-mode:screen;fill:url(#linearGradient55);fill-rule:evenodd;stroke-width:0;stop-color:#000000;stop-opacity:1"
         transform="matrix(1.0000574,0,0,1.0000574,-0.00976619,-0.02111501)"
         d="M 2.9118972e-5,194.40817 H 343.59183 v 343.5918 H 2.9118972e-5 Z" />
      <g
         id="g49"
         style="display:inline">
        <path
           id="rect1"
           style="display:inline;opacity:1;mix-blend-mode:multiply;fill:url(#radialGradient9);fill-rule:evenodd;stroke-width:0.771;stop-color:#000000;stop-opacity:1;stroke:none"
           d="M 0,194.4082 H 343.5918 V 538 H 0 Z" />
        <path
           id="path38"
           transform="matrix(1.0000574,0,0,1.0000574,-0.00976619,-0.02111501)"
           mask="none"
           d="M 5.0097656,199.41797 H 338.58203 V 532.99023 H 5.0097656 Z"
           style="font-variation-settings:normal;display:inline;opacity:1;mix-blend-mode:normal;fill:none;fill-opacity:1;fill-rule:evenodd;stroke:url(#radialGradient39);stroke-width:10;stroke-linecap:butt;stroke-linejoin:miter;stroke-miterlimit:4;stroke-dasharray:none;stroke-dashoffset:0;stroke-opacity:1;stop-color:#000000;stop-opacity:1" />
      </g>
    </g>
  </g>
</svg>
